<svg width="48" height="48" viewBox="0 0 48 48" fill="none" xmlns="http://www.w3.org/2000/svg">
<g clip-path="url(#clip0_9210_887)">
<path d="M16.0246 34.289C16.0388 34.324 16.0358 34.3629 16.0205 34.398C15.8067 34.8864 15.3518 34.9837 15.135 34.4252C15.1268 34.4028 15.1228 34.3795 15.1248 34.3561C15.1716 33.8628 15.8719 33.9222 16.0246 34.289Z" fill="#A6D1FC"/>
<path d="M17.4953 37.0997C17.6714 37.0372 17.8286 36.9814 17.9167 37.1011C17.9259 37.1137 17.9625 37.1215 17.9982 37.1234V37.6547C17.834 37.5741 17.5155 37.6231 17.2095 37.6701C16.7433 37.7418 16.3062 37.809 16.4887 37.4066C16.4944 37.3929 16.5037 37.38 16.5124 37.3681L16.5141 37.3657C16.621 37.2285 16.5742 37.1779 16.4195 37.1439C16.4093 37.141 16.3981 37.14 16.3869 37.139C15.9543 37.0981 16.0989 36.3353 16.5416 36.6097L16.5784 36.629C16.7258 36.7059 16.8777 36.7852 16.8795 36.9639C16.8795 37.0271 16.8907 37.0943 16.9447 37.1293C17.1117 37.236 17.3136 37.1643 17.4953 37.0997Z" fill="#A6D1FC"/>
<path d="M11.029 40.9881C10.7714 41.2829 11.3017 41.5846 11.5511 41.5398C11.5601 41.5381 11.569 41.5362 11.5779 41.5343C11.6098 41.5275 11.6417 41.5208 11.6743 41.5223C11.8033 41.5322 11.8925 41.5456 11.9581 41.5553C12.1101 41.5781 12.1348 41.5817 12.2351 41.4804C12.2514 41.4639 12.2707 41.4493 12.2911 41.4405C12.8692 41.1885 12.4071 42.6977 12.0163 42.3571C11.8742 42.2256 11.8365 42.1253 11.8125 42.0614C11.8005 42.0297 11.792 42.007 11.7757 41.994C11.7349 41.9614 11.6452 41.9901 11.3305 42.0905L11.202 42.1314C11.1898 42.1353 11.1755 42.1392 11.1623 42.1401C10.8482 42.1702 10.8113 41.9891 10.7815 41.8422C10.7592 41.7325 10.7407 41.6418 10.6137 41.6721C10.6025 41.675 10.5893 41.678 10.577 41.6789C9.95819 41.7432 10.2585 41.0445 10.5893 40.8606C10.8081 40.704 10.8651 40.5892 10.7094 40.3858C10.7022 40.3771 10.6941 40.3683 10.686 40.3605C10.2188 39.9207 11.315 39.8234 11.2621 40.2661C11.26 40.2827 11.258 40.3002 11.259 40.3167C11.2732 40.5726 11.2509 40.7935 11.029 40.9881Z" fill="#A6D1FC"/>
<path d="M10.2697 42.4828C10.291 42.4828 10.3134 42.4789 10.3328 42.4701C10.5211 42.3942 10.7083 42.2502 10.4844 42.1267C10.4681 42.1179 10.4508 42.1121 10.4325 42.1101C10.3781 42.1037 10.3148 42.1065 10.2499 42.1095C10.1277 42.1149 9.99987 42.1207 9.91544 42.0654C9.89712 42.0537 9.88491 42.0352 9.87371 42.0177C9.61314 41.6032 8.87826 41.8036 8.73983 42.1773C8.55051 42.6618 9.09201 44.1563 9.75055 43.555C9.776 43.5317 9.80857 43.5122 9.84114 43.4996C10.1903 43.3653 10.1862 43.0092 9.7648 42.943C9.69762 42.9323 9.58464 42.8632 9.58871 42.8321C9.61789 42.3873 9.7791 42.4148 10.016 42.4551C10.0932 42.4683 10.1784 42.4828 10.2697 42.4828Z" fill="#A6D1FC"/>
<path d="M7.84718 40.3157C7.80748 40.3235 7.76575 40.3167 7.72911 40.3002C7.16935 40.0378 7.43455 39.9479 7.75499 39.8393C7.94788 39.7739 8.1608 39.7018 8.22582 39.5811C8.41929 39.0888 8.73698 39.3825 9.00706 39.6322C9.05665 39.678 9.10471 39.7224 9.15002 39.7602C9.43604 39.983 9.23247 40.1299 8.96681 40.1854C8.92203 40.1941 8.87521 40.1854 8.83551 40.1649C8.37973 39.9303 8.30361 40.0064 8.18736 40.1225C8.11799 40.1918 8.03433 40.2754 7.84718 40.3157Z" fill="#A6D1FC"/>
<path d="M12.2931 38.2577C12.4346 38.352 12.6412 38.4309 12.7522 38.2976C12.7685 38.2781 12.7756 38.2528 12.7807 38.2275C12.82 38.0323 12.9476 38.0407 13.0954 38.0504C13.1694 38.0553 13.2485 38.0605 13.3242 38.0407C13.8698 37.8305 13.6733 37.5162 13.2357 37.4491C13.199 37.4433 13.1614 37.4491 13.1257 37.4588C13.0616 37.4764 12.97 37.5016 12.9435 37.5552C12.8831 37.7074 12.7302 37.7664 12.5808 37.8241C12.4208 37.8858 12.2648 37.946 12.23 38.1176C12.2178 38.173 12.2463 38.2265 12.2931 38.2577Z" fill="#A6D1FC"/>
<path d="M5.74227 42.4719C5.62216 42.4806 5.43284 42.4261 5.58552 42.2948C6.10055 41.9542 5.47559 41.6253 5.26388 42.071L5.26085 42.0769C5.25674 42.0849 5.25249 42.0932 5.2476 42.1002C5.1395 42.2712 5.19904 42.312 5.27432 42.3635C5.32025 42.395 5.37204 42.4305 5.39518 42.502C5.40027 42.5186 5.40129 42.5361 5.40027 42.5526C5.38399 42.8212 5.44404 42.8757 5.76364 42.8757C6.19725 42.9243 6.17587 42.4349 5.74227 42.4719Z" fill="#A6D1FC"/>
<path d="M8.4243 41.9455C8.22073 42.2997 7.32604 42.4233 7.6029 41.8434C7.76168 41.5359 8.38562 41.4775 8.43956 41.8677C8.44262 41.8949 8.43753 41.9222 8.4243 41.9455Z" fill="#A6D1FC"/>
<path d="M9.58566 41.3207C10.3521 41.202 10.2198 40.7466 9.61008 40.589C9.5938 40.5851 9.57548 40.5822 9.55919 40.5841C9.23043 40.624 9.1205 41.3508 9.58566 41.3207Z" fill="#A6D1FC"/>
<path d="M6.43542 44.7759C6.45069 44.773 6.46698 44.772 6.48326 44.774C6.89855 44.8216 7.06344 45.4823 6.4741 45.5018C6.45476 45.5018 6.43441 45.4988 6.41609 45.493C6.00793 45.3568 5.90105 44.882 6.43542 44.7759Z" fill="#A6D1FC"/>
<path d="M14.8703 37.5117C15.0698 37.5224 15.1502 37.4134 15.1726 37.0768C15.1645 36.312 13.6469 37.3667 14.8703 37.5117Z" fill="#A6D1FC"/>
<path d="M10.9974 38.1713C10.9954 38.1615 10.9954 38.1518 10.9964 38.1421C11.03 37.8103 11.599 37.7013 11.6356 38.0944C11.6682 38.7122 11.0636 38.7152 10.9974 38.1713Z" fill="#A6D1FC"/>
<path d="M7.04919 38.8035C7.0614 38.8055 7.07464 38.8064 7.08685 38.8055C7.45429 38.7772 7.54895 38.2012 7.10008 38.2567C6.48022 38.281 6.59116 38.7208 7.04919 38.8035Z" fill="#A6D1FC"/>
<path d="M11.3913 39.9688C11.2753 39.8676 11.3221 39.7255 11.3883 39.5845C11.3954 39.5679 11.4066 39.5523 11.4188 39.5397C11.8402 39.1048 12.1415 39.9192 11.5023 39.999C11.4626 40.0038 11.4208 39.9951 11.3913 39.9688Z" fill="#A6D1FC"/>
<path d="M16.7065 38.4466C16.6943 38.6198 16.8113 38.7054 17.0516 38.7113C18.049 38.7005 16.79 37.746 16.7065 38.4466Z" fill="#A6D1FC"/>
<path d="M5.66899 43.5315C5.68833 43.5296 5.70767 43.5315 5.72599 43.5364C6.15857 43.6541 6.00284 44.1027 5.45117 44.09C5.41962 44.09 5.38704 44.0813 5.36262 44.0618C5.13055 43.8837 5.40537 43.5646 5.66899 43.5315Z" fill="#A6D1FC"/>
<path d="M5.23946 44.882C5.22216 44.8762 5.20383 44.8732 5.18551 44.8742C4.88321 44.8898 4.65522 45.2352 4.87507 45.4337C4.90561 45.4619 4.94937 45.4726 4.99111 45.4658C5.34124 45.4084 5.61708 45.0065 5.23946 44.882Z" fill="#A6D1FC"/>
<path d="M15.4108 36.8277C15.652 36.9123 15.7284 36.8452 15.7548 36.5241C15.7579 35.7924 14.8174 36.6846 15.4108 36.8277Z" fill="#A6D1FC"/>
<path d="M8.79479 40.3676C8.78054 40.3646 8.76426 40.3646 8.75001 40.3666C8.61565 40.3841 8.49554 40.4668 8.49147 40.5982C8.53117 41.5138 9.4849 40.4853 8.79479 40.3676Z" fill="#A6D1FC"/>
<path d="M10.7562 38.9621C10.745 38.9728 10.7307 38.9816 10.7175 38.9884C10.1282 39.2823 10.4295 38.21 10.8773 38.4815C11.0595 38.6196 10.9414 38.7977 10.7562 38.9621Z" fill="#A6D1FC"/>
<path d="M10.0162 37.9631C10.5445 37.9515 10.3155 37.4922 9.81773 37.4796C9.78414 37.4786 9.75055 37.4873 9.72408 37.5068C9.48387 37.679 9.66098 37.9602 10.0162 37.9631Z" fill="#A6D1FC"/>
<path d="M3.41954 42.7397C3.43277 42.7397 3.44804 42.7417 3.46127 42.7456C3.86129 42.8594 3.55084 43.2272 3.19256 43.2768C3.14778 43.2827 3.10096 43.2691 3.07042 43.237C2.87805 43.0336 3.10808 42.7397 3.41954 42.7397Z" fill="#A6D1FC"/>
<path d="M12.6565 39.7098C12.6646 39.7205 12.6738 39.7302 12.685 39.738C12.7817 39.8052 12.9904 39.845 13.0942 39.7594C13.5848 39.3984 12.1231 39.0199 12.6565 39.7098Z" fill="#A6D1FC"/>
<path d="M6.84357 44.0473C6.86902 43.6911 7.21102 43.4751 7.38304 43.7787C7.39423 43.7972 7.40034 43.8186 7.3983 43.842C7.38711 44.056 7.06954 44.3216 6.88022 44.1485C6.85274 44.1222 6.84052 44.0842 6.84357 44.0473Z" fill="#A6D1FC"/>
<path d="M10.9465 36.7324C10.9313 36.7528 10.9201 36.7752 10.916 36.8005C10.8519 37.1644 11.2865 36.9542 11.3384 36.6974C11.3486 36.6487 11.3211 36.6001 11.2753 36.5767C11.1338 36.5067 11.0371 36.6117 10.9465 36.7324Z" fill="#A6D1FC"/>
<path d="M11.0911 35.6942C11.1277 35.7137 11.146 35.7555 11.1348 35.7944C11.0707 36.0241 10.572 36.3218 10.574 35.9988C10.574 35.9861 10.576 35.9725 10.5801 35.9608C10.6412 35.7905 10.919 35.5979 11.0911 35.6942Z" fill="#A6D1FC"/>
<path d="M8.20342 45.7334C8.65313 45.7334 9.0177 45.4067 9.0177 45.0037C9.0177 44.6006 8.65313 44.2739 8.20342 44.2739C7.75371 44.2739 7.38914 44.6006 7.38914 45.0037C7.38914 45.4067 7.75371 45.7334 8.20342 45.7334Z" fill="#A6D1FC"/>
<path fill-rule="evenodd" clip-rule="evenodd" d="M17.9483 40.163C17.9585 40.161 17.9697 40.161 17.9798 40.161C17.9859 40.161 17.9931 40.162 17.9961 40.163V46.0019H9.04111C9.10011 45.9786 9.16115 45.9566 9.22184 45.9347C9.59884 45.7988 9.96193 45.6679 9.73223 45.2547C9.5711 44.8841 9.6864 44.7837 9.82522 44.6629C9.89597 44.6013 9.97284 44.5344 10.0223 44.4237C10.0427 44.38 10.0345 44.3303 10.0193 44.2846C9.947 44.0666 10.0417 43.8195 10.2483 43.6862C10.2615 43.6774 10.2737 43.6687 10.2849 43.658C10.3678 43.5746 10.4295 43.4758 10.4905 43.3782C10.6147 43.1795 10.7359 42.9856 11.0259 42.936C11.1337 42.9087 11.1945 42.8163 11.2533 42.727C11.3329 42.6062 11.4087 42.491 11.5918 42.5497C11.7718 42.5964 11.7522 42.7306 11.7343 42.8526C11.7149 42.9852 11.6977 43.1034 11.941 43.0791C11.9522 43.0771 11.9644 43.0771 11.9756 43.0771C12.2697 43.0801 12.3659 42.881 12.4663 42.6729C12.5609 42.4771 12.6593 42.2733 12.9303 42.2228L12.9329 42.2223C12.9423 42.2205 12.9525 42.2186 12.9619 42.215C13.1726 42.145 13.1695 42.0963 13.0087 41.9543C12.7107 41.7131 12.7883 41.45 12.8483 41.2466C12.9006 41.0691 12.9395 40.937 12.7043 40.9044C12.683 40.9015 12.6596 40.8966 12.6402 40.8869C12.1476 40.6495 12.9873 40.2515 13.1817 40.6271C13.2051 40.6728 13.2336 40.7176 13.2815 40.74C13.323 40.7593 13.3731 40.7804 13.4269 40.8029C13.7406 40.9346 14.1796 41.1189 13.7782 41.3315C13.7582 41.3418 13.7359 41.3471 13.7135 41.3524C13.7062 41.3542 13.6989 41.3559 13.6917 41.3578C13.4769 41.4123 13.3324 41.8122 13.4698 41.8774C13.483 41.8832 13.4983 41.8832 13.5135 41.8832C13.5299 41.8828 13.5463 41.8822 13.5626 41.8817C13.82 41.8732 14.0716 41.8649 14.1568 42.1576C14.2158 42.4398 14.6159 42.398 14.8683 42.3707C14.9273 42.3639 14.9833 42.3337 15.0016 42.2792C15.0179 42.2311 15.0284 42.1748 15.0394 42.116C15.0648 41.9799 15.0927 41.8306 15.2001 41.7402C15.2018 41.7387 15.2034 41.7373 15.2051 41.7358C15.2188 41.7236 15.2329 41.7112 15.2429 41.6964C15.2907 41.6244 15.2815 41.5777 15.1645 41.5699C14.9412 41.5498 14.8279 41.3675 14.7111 41.1796C14.6527 41.0857 14.5934 40.9903 14.5192 40.9132C14.4937 40.8869 14.4744 40.8538 14.4561 40.8217C14.4234 40.7636 14.3688 40.7122 14.3156 40.6622C14.2148 40.5674 14.1194 40.4777 14.1894 40.3566C14.1955 40.3478 14.2026 40.3391 14.2097 40.3313C14.428 40.1022 14.5446 40.1141 14.693 40.1294C14.7633 40.1366 14.8408 40.1445 14.9395 40.1279C14.9772 40.1221 15.0128 40.1046 15.0271 40.0715C15.1207 39.8526 14.623 39.4274 14.4754 39.6541C14.4662 39.6677 14.4622 39.6833 14.4581 39.6988C14.3451 40.126 13.4586 40.0715 13.7588 39.5899C13.7644 39.5807 13.7713 39.5728 13.7779 39.5651C13.7797 39.5629 13.7815 39.5608 13.7833 39.5587C13.8652 39.4671 13.833 39.397 13.8002 39.3258C13.7854 39.2935 13.7704 39.2609 13.766 39.226C13.7385 39.0353 13.5663 39.0175 13.391 38.9993C13.2676 38.9865 13.1427 38.9736 13.0657 38.9C13.0413 38.8767 13.0311 38.8446 13.0341 38.8125C13.086 38.2617 14.6159 37.8667 13.9583 38.7716C13.938 38.7988 13.9227 38.8319 13.9227 38.865C13.9241 38.998 14.0342 38.9336 14.1659 38.8565C14.3232 38.7644 14.5114 38.6543 14.5823 38.8407C14.5853 38.8504 14.5904 38.8621 14.5955 38.8718C14.7651 39.1832 14.9868 39.156 15.2303 39.1261C15.317 39.1154 15.4064 39.1044 15.4973 39.1082C15.5452 39.1102 15.5879 39.1355 15.6256 39.1637C15.861 39.3388 16.2526 39.215 16.6216 39.0983C16.8349 39.0309 17.0406 38.9659 17.2042 38.9623C17.8288 38.9604 17.6496 39.2827 17.4753 39.5964C17.2868 39.9355 17.1038 40.2646 17.9483 40.163ZM11.6488 44.8129C11.6804 44.7954 11.7099 44.7692 11.7181 44.7351C11.772 44.4938 10.8315 44.9326 11.144 45.0289C11.1847 45.0416 11.2285 45.0319 11.2661 45.0124C11.2944 44.9979 11.3231 44.9833 11.3521 44.9685C11.4494 44.9189 11.55 44.8677 11.6488 44.8129ZM10.7989 44.2603C10.859 44.2262 10.9323 44.2233 11.0514 44.2992C11.5063 44.5444 11.8982 44.162 11.9125 43.7203C11.9135 43.7086 11.9125 43.6969 11.9104 43.6862C11.8424 43.2903 11.7324 43.379 11.5489 43.5271C11.3919 43.6537 11.1811 43.8238 10.8966 43.7709C10.8763 43.767 10.857 43.7582 10.8376 43.7494C10.5007 43.5977 10.3684 44.4247 10.7592 44.2807C10.7725 44.2758 10.7857 44.2681 10.7989 44.2603ZM12.6956 45.2636C12.7075 45.259 12.7195 45.2544 12.7308 45.2488C12.8906 45.172 13.0728 44.8032 13.0413 44.6835C13.0392 44.6738 13.0351 44.6641 13.0311 44.6553C12.8418 44.1708 11.7415 44.5006 12.1069 44.7594C12.2778 44.8693 12.244 44.9876 12.2022 45.1338C12.187 45.187 12.1707 45.2438 12.1628 45.3053C12.1598 45.3296 12.1628 45.3539 12.172 45.3763C12.2624 45.6085 12.3842 45.5043 12.5261 45.3828C12.5632 45.351 12.6016 45.3181 12.6412 45.2897C12.6575 45.2783 12.6766 45.271 12.6956 45.2636ZM13.3113 43.1492C13.3164 43.1417 13.3214 43.1342 13.3262 43.1267C13.4504 42.9351 13.2153 42.5877 12.9761 42.7803C12.9262 42.8202 12.9171 42.8883 12.9364 42.9487L12.9399 42.9596C13.0349 43.2534 13.1875 43.7257 13.2407 43.2999C13.2469 43.2453 13.2796 43.1965 13.3113 43.1492Z" fill="#A6D1FC"/>
<rect x="18" y="37" width="8" height="9" fill="#A6D1FC"/>
</g>
<g clip-path="url(#clip1_9210_887)">
<path d="M35.1649 40.1149C35.328 39.9529 35.353 39.9155 35.491 40.1398C35.8172 40.551 35.9928 39.6414 35.5161 39.7161C35.3656 39.741 35.2151 39.6414 35.0771 39.6164C34.8638 39.5791 34.6631 40.065 34.5125 39.766C34.2742 39.2675 34.0358 39.5791 34.0484 39.9404C34.0358 40.1896 33.509 40.5386 34.0609 40.6881C34.3369 40.9622 35.0645 40.6507 34.9014 41.0868C34.2115 41.7348 36.0806 41.66 35.2778 41.1367C35.1398 41.0245 35.0771 40.9996 35.2527 40.8999C35.8548 40.3267 34.5251 40.5884 35.1649 40.1149Z" fill="#A6D1FC"/>
<path d="M32.2921 39.2675C32.5305 39.4046 32.8817 39.2301 33.0448 39.5167C33.672 39.903 33.9229 39.2426 33.3584 38.9685C33.7348 38.3454 33.4337 37.037 33.0699 38.4202C32.8315 38.6445 32.0412 39.0183 32.2921 39.2675Z" fill="#A6D1FC"/>
<path d="M37.1595 41.9716C37.7742 42.0713 38.6022 40.551 37.5108 40.9373C37.1971 41.7722 37.172 41.1118 36.6703 41.2364C36.2688 41.4856 36.7706 42.0463 37.1595 41.9716Z" fill="#A6D1FC"/>
<path d="M33.4211 36.7878C33.6595 36.6009 33.9982 37.0744 34.1237 36.7504C34.1864 36.5136 34.7258 35.741 34.2491 35.7909C33.3208 37.2488 33.4462 35.0681 32.9444 35.9155C32.9444 36.2519 33.0824 36.713 33.4211 36.7878Z" fill="#A6D1FC"/>
<path d="M35.8799 38.3205C35.7419 38.0588 36.3065 37.8345 36.0806 37.5105C35.5036 36.9373 35.466 38.0713 35.5161 38.4576C35.4785 39.118 36.2061 38.7815 35.8799 38.3205Z" fill="#A6D1FC"/>
<path d="M37.4606 39.3921C37.3602 39.4295 37.3979 39.5791 37.4229 39.6538C37.5735 39.9653 36.9964 39.8906 37.0717 40.2519C37.3853 41.1616 38.5645 38.9809 37.4606 39.3921Z" fill="#A6D1FC"/>
<path d="M41.4624 44.4762C41.1738 44.4264 40.6219 44.7255 40.8226 45.037C41.2742 45.4108 42.328 44.8002 41.4624 44.4762Z" fill="#A6D1FC"/>
<path d="M34.8638 39.1803C35.1147 39.1928 35.2151 39.0681 35.1774 38.8688C35.5161 37.3361 33.7975 39.118 34.8638 39.1803Z" fill="#A6D1FC"/>
<path d="M32.405 36.9373C32.9319 36.8002 32.5681 36.2769 32.1792 36.389C31.6147 36.7878 31.7527 37.5105 32.405 36.9373Z" fill="#A6D1FC"/>
<path d="M37.9875 42.9435C38.3136 43.0308 38.8154 42.5323 38.4516 42.3205C38.0125 42.0962 37.5108 42.6694 37.9875 42.9435Z" fill="#A6D1FC"/>
<path d="M40.0323 43.903C40.0197 42.2208 38.6398 45.1242 40.0197 43.9404C40.0197 43.928 40.0323 43.9155 40.0323 43.903Z" fill="#A6D1FC"/>
<path d="M44.0842 43.4171C44.1219 42.8937 43.5448 42.8937 43.4319 43.28C43.4194 43.7909 43.9588 43.9653 44.0842 43.4171Z" fill="#A6D1FC"/>
<path d="M33.9857 41.5853C34.1613 41.7847 34.4875 41.7971 34.5251 41.5105C34.4498 40.6258 33.4839 41.2488 33.9857 41.5853Z" fill="#A6D1FC"/>
<path d="M40.1703 45.0744C40.1828 44.713 39.5305 44.5012 39.4677 45.0121C39.5556 45.3859 40.0323 45.5604 40.1703 45.0744Z" fill="#A6D1FC"/>
<path d="M36.5197 38.6195C36.8208 38.7317 37.0215 38.5323 37.0341 38.1959C37.1595 37.5354 35.9176 38.4451 36.5197 38.6195Z" fill="#A6D1FC"/>
<path d="M44.6237 45.1616C43.8961 45.2862 44.448 45.9217 44.8118 45.7099C45.1505 45.4482 45 45.0619 44.6237 45.1616Z" fill="#A6D1FC"/>
<path d="M41.7634 43.0308C41.9642 42.8189 42.0018 42.4949 41.5878 42.4825C40.6344 42.632 41.4498 43.1429 41.7634 43.0308Z" fill="#A6D1FC"/>
<path d="M40.4713 45.4482C40.3961 45.6351 40.6344 45.9093 40.8728 45.847C41.8136 45.4607 40.7097 45.1616 40.4713 45.4482Z" fill="#A6D1FC"/>
<path d="M43.2688 45.5479C43.4946 45.6351 43.8208 45.3485 43.8333 45.1242C43.8082 44.389 42.9176 45.3236 43.2688 45.5479Z" fill="#A6D1FC"/>
<path d="M35.9176 40.5759C35.9176 40.8875 36.6577 41.1242 36.6201 40.5635C36.6326 40.1024 36.0179 40.3267 35.9176 40.5759Z" fill="#A6D1FC"/>
<path d="M36.7079 35.8407C36.5573 35.4295 36.2312 35.8033 36.1935 36.09C36.181 36.6632 36.7957 36.227 36.7079 35.8407Z" fill="#A6D1FC"/>
<path d="M42.2276 45.7597C42.4032 45.7971 42.6667 45.5354 42.6416 45.3734C42.2527 44.9747 41.4875 45.523 42.2276 45.7597Z" fill="#A6D1FC"/>
<path d="M39.2294 42.6569C39.4803 42.7192 39.7688 42.2706 39.4803 42.1585C38.9158 42.0588 38.6022 42.3952 39.2294 42.6569Z" fill="#A6D1FC"/>
<path d="M40.095 36.9996C39.8817 36.5759 39.4301 37.3734 39.6559 37.5853C39.9194 37.8096 40.2204 37.2239 40.095 36.9996Z" fill="#A6D1FC"/>
<path d="M42.6165 44.3267C42.629 44.6632 43.4695 44.3766 43.3817 44.065C43.3817 43.741 42.5789 44.09 42.6165 44.3267Z" fill="#A6D1FC"/>
<path d="M40.534 42.6569C40.647 42.2333 40.1201 42.2831 40.0573 42.5946C40.0824 43.1928 40.371 43.28 40.534 42.6569Z" fill="#A6D1FC"/>
<path d="M36.595 39.6912C37.3226 39.7161 36.6703 38.9934 36.3441 39.2924C36.1434 39.5915 36.181 39.7535 36.595 39.6912Z" fill="#A6D1FC"/>
<path d="M42.8674 39.7161C42.8925 39.3672 42.3154 39.4669 42.2652 39.6912C42.2778 40.1523 42.8047 40.2395 42.8674 39.7161Z" fill="#A6D1FC"/>
<path d="M39.819 39.8283C39.5179 39.8158 39.2419 40.3516 39.6685 40.389C40.095 40.389 40.2204 39.9155 39.819 39.8283Z" fill="#A6D1FC"/>
<path d="M32.6434 35.2675C32.4176 35.2426 32.2043 35.7909 32.5179 35.8532C32.8441 35.8532 33.0072 35.3049 32.6434 35.2675Z" fill="#A6D1FC"/>
<path d="M41.1613 41.3984C41.3495 41.2613 41.1989 40.9996 41.0108 41.037C40.3208 41.2364 40.7724 41.6974 41.1613 41.3984Z" fill="#A6D1FC"/>
<path d="M38.7151 40.0276C39.0663 40.0027 39.2921 39.5417 38.828 39.5915C38.5394 39.5043 38.4014 39.9653 38.7151 40.0276Z" fill="#A6D1FC"/>
<path d="M32.9821 37.0245C32.5681 37.1367 32.7814 37.66 33.1326 37.6102C33.5341 37.523 33.3333 36.8875 32.9821 37.0245Z" fill="#A6D1FC"/>
<path d="M42.6039 42.3703C42.6541 42.7442 43.1685 42.47 43.0806 42.146C42.9552 41.9217 42.6416 42.1959 42.6039 42.3703Z" fill="#A6D1FC"/>
<path d="M32.8441 34.4576C32.9319 34.0214 32.5179 33.8096 32.4803 34.2208C32.4803 34.47 32.7312 34.6819 32.8441 34.4576Z" fill="#A6D1FC"/>
<path d="M33.8853 38.3703C33.7348 38.4576 33.6344 38.6694 33.8602 38.6943C34.3244 38.6819 34.1864 38.1959 33.8853 38.3703Z" fill="#A6D1FC"/>
<path d="M38.1631 37.0993C38.2885 36.9996 38.1882 36.8002 38.0376 36.8501C37.7742 36.9124 37.9247 37.3361 38.1631 37.0993Z" fill="#A6D1FC"/>
<path d="M43.0681 45.5977C42.9301 45.5604 42.7419 45.6974 42.8674 45.7971C43.0054 45.984 43.3441 45.7224 43.0681 45.5977Z" fill="#A6D1FC"/>
<path d="M31.1505 38.1709C31.0878 38.1585 31.0502 38.146 31 38.1336V39.5666C31.2509 39.4171 31.552 39.2924 31.6147 39.4171C31.5143 39.5541 31.276 39.8158 31 40.0152V45.9965H35.6792C35.4785 45.7971 35.328 46.009 35.1398 45.8719C35.0143 45.7847 35.1398 45.5977 35.2778 45.6476C35.5412 45.7099 35.8674 44.9124 35.7168 44.5759C35.767 44.3392 36.1183 44.8999 36.1057 45.0495C35.5914 45.2987 35.629 45.7224 35.9176 45.9965H38.1129C38.5143 45.6227 39.1165 45.66 39.1039 45.1616C38.8907 44.8625 39.6183 44.3143 38.9158 44.551C38.7025 44.9248 38.7527 45.2862 38.138 45.199C37.8996 45.2364 38.2509 44.875 37.9122 44.8002C37.8244 44.7753 37.7115 44.6881 37.6362 44.8127C37.4857 45.0744 38.2007 45.3734 37.7366 45.5728C37.1595 45.6351 37.1595 45.0495 37.4355 44.713C37.6738 44.5386 37.147 44.1896 37.5609 44.09C37.7742 44.0027 37.7366 44.3641 37.8244 44.4513C38.6022 45.2239 38.2007 43.2551 38.9785 43.8033C39.3423 44.1398 39.8692 42.9934 38.2007 43.4046C37.9875 43.5167 37.172 43.4171 37.448 42.8065C37.6362 42.5697 37.4355 41.9342 37.1219 42.1585C36.8961 42.4949 36.9713 43.1554 36.3817 42.956C36.3065 42.9186 36.3065 42.8314 36.3441 42.7566C36.7706 42.1336 36.2437 42.1709 35.8297 41.6974C35.2025 41.2114 35.3781 42.7192 34.9516 42.3952C34.6882 41.4981 34.224 42.2706 33.9104 41.7722C33.7222 41.5105 33.5341 41.199 33.2957 40.9747C32.8692 40.8501 33.3459 40.4887 33.0448 40.3516C32.7437 40.2769 33.2957 40.1523 33.1201 39.8158C32.6183 39.1554 32.6308 40.227 32.2921 40.4139C31.8154 40.9996 31.853 40.3018 32.0663 39.9903C32.3674 39.6663 31.7025 39.5791 31.991 39.2675C32.4803 38.3329 31.69 39.0557 31.3513 38.8563C31.0753 38.6943 31.7151 38.5074 31.8907 38.4949C31.9785 38.3952 32.0287 38.171 31.991 38.0339C31.8656 37.6974 32.3674 37.6351 32.1416 37.3859C31.853 37.1491 31.5143 37.6102 31.2258 37.7224C30.8369 37.9093 31.3136 38.1086 31.1505 38.1709ZM35.8423 43.3298C36.0932 43.2551 36.6326 43.604 36.7455 43.6912C36.6075 43.7535 36.3315 43.7535 36.1935 43.928C35.9427 44.2769 35.5789 43.3797 35.8423 43.3298ZM35.8047 42.5697C35.8674 42.6943 35.6039 42.7566 35.5036 42.7566C35.1649 42.6569 35.6792 42.4326 35.8047 42.5697ZM33.672 43.7037C33.5466 43.8033 33.3082 43.5666 33.4964 43.4794C33.6595 43.4295 33.9104 43.5791 33.672 43.7037ZM34.914 44.1273C34.9391 44.2893 35.1272 44.4264 35.0896 44.6009C34.8889 44.9248 34.1738 43.7535 34.7007 43.9404C34.7885 43.9778 34.9014 43.9778 34.914 44.1273ZM33.9229 42.3952C34.1613 42.4077 35.0143 42.6943 34.5376 42.9435C34.1738 42.6071 33.7599 43.1305 33.3835 43.1055C32.9821 42.6943 33.4588 42.4202 33.9229 42.3952ZM32.4928 44.8002C32.267 44.9747 31.9032 44.7629 31.9283 44.5386C32.2419 44.4887 32.4928 44.6258 32.6935 44.3516C33.4462 44.1772 33.0197 44.8376 32.4928 44.8002ZM31.69 41.4108C31.9283 41.0619 32.7061 40.8501 32.7312 41.4856C32.8566 41.8968 32.3925 41.7348 32.1165 41.6725C31.8029 41.7473 31.6022 41.9217 31.69 41.4108Z" fill="#A6D1FC"/>
<rect x="21" y="36" width="10" height="10" fill="#A6D1FC"/>
</g>
<path fill-rule="evenodd" clip-rule="evenodd" d="M42 6V23.7833C42 30.7506 38.3741 37.2158 32.429 40.8489L24 46L15.571 40.8489C9.6259 37.2158 6 30.7506 6 23.7833L6 6H42Z" fill="#3A89F8"/>
<path d="M7.3 17.3L10 16L7.3 14.7L6 12L4.6 14.7L2 16L4.6 17.3L6 20L7.3 17.3Z" fill="#FFD500"/>
<path d="M11.9799 7.99668L10 9.97656L11.9799 11.9564L13.9598 9.97656L11.9799 7.99668Z" fill="#FFD500"/>
<path d="M2.00002 4.49997L3.49999 2.99996L4.99998 4.49992L3.50002 6L2.00002 4.49997Z" fill="#FFD500"/>
<path d="M32.8099 31.6302L32.3802 30.6097C32.3444 30.5381 32.2967 30.4814 32.237 30.4396C32.1773 30.3978 32.1057 30.377 32.0221 30.377H31.2523V18.7933C31.2523 18.6978 31.2165 18.6113 31.1449 18.5337C31.0733 18.4561 30.9837 18.4173 30.8763 18.4173H27.4388V14.21C27.4388 14.1145 27.403 14.0279 27.3314 13.9504C27.2598 13.8728 27.1703 13.834 27.0628 13.834H17.1263C17.0189 13.834 16.9294 13.8728 16.8577 13.9504C16.7861 14.0279 16.7503 14.1145 16.7503 14.21V30.377H15.9805C15.8969 30.377 15.8253 30.3978 15.7656 30.4396C15.7059 30.4814 15.6582 30.5381 15.6224 30.6097L15.1927 31.6302C15.1688 31.6899 15.1599 31.7525 15.1659 31.8182C15.1718 31.8838 15.1927 31.9405 15.2285 31.9883C15.2643 32.048 15.3091 32.0927 15.3628 32.1226C15.4165 32.1524 15.4732 32.1673 15.5329 32.1673H32.4697C32.5294 32.1673 32.5861 32.1524 32.6398 32.1226C32.6935 32.0927 32.7382 32.048 32.774 31.9883C32.8099 31.9405 32.8307 31.8838 32.8367 31.8182C32.8427 31.7525 32.8337 31.6899 32.8099 31.6302L32.8099 31.6302ZM21.3337 27.584H19.042V25.2923H21.3337V27.584ZM21.3337 23.0007H19.042V20.709H21.3337V23.0007ZM21.3337 18.4173H19.042V16.1257H21.3337V18.4173ZM25.1472 30.1263H22.8555V25.2924H25.1472V30.1263ZM25.1472 23.0007H22.8555V20.709H25.1472V23.0007ZM25.1472 18.4173H22.8555V16.1257H25.1472V18.4173ZM28.9606 27.584H26.669V25.2923H28.9606V27.584ZM28.9606 23.0007H26.669V20.709H28.9606V23.0007Z" fill="#001959"/>
<defs>
<clipPath id="clip0_9210_887">
<rect width="23" height="12" fill="white" transform="translate(3 34)"/>
</clipPath>
<clipPath id="clip1_9210_887">
<rect width="24" height="12" fill="white" transform="translate(21 34)"/>
</clipPath>
</defs>
</svg>
